HIERARCHY
ROOT Hips
{
	OFFSET 0.000000 0.000000 0.000000
	CHANNELS 6 Xposition Yposition Zposition Zrotation Yrotation Xrotation 
	JOINT LHipJoint
	{
		OFFSET 0.000000 0.000000 0.000000
		CHANNELS 3 Zrotation Yrotation Xrotation
		JOINT LeftUpLeg
		{
			OFFSET 1.363060 -1.794630 0.839290
			CHANNELS 3 Zrotation Yrotation Xrotation
			JOINT LeftLeg
			{
				OFFSET 2.448110 -6.726130 0.000000
				CHANNELS 3 Zrotation Yrotation Xrotation
				JOINT LeftFoot
				{
					OFFSET 2.562200 -7.039590 0.000000
					CHANNELS 3 Zrotation Yrotation Xrotation
					JOINT LeftToeBase
					{
						OFFSET 0.157640 -0.433110 2.322550
						CHANNELS 3 Zrotation Yrotation Xrotation
						End Site
						{
							OFFSET 0.000000 0.000000 0.000000
						}
					}
				}
			}
		}
	}
	JOINT RHipJoint
	{
		OFFSET 0.000000 0.000000 0.000000
		CHANNELS 3 Zrotation Yrotation Xrotation
		JOINT RightUpLeg
		{
			OFFSET -1.305520 -1.794630 0.839290
			CHANNELS 3 Zrotation Yrotation Xrotation
			JOINT RightLeg
			{
				OFFSET -2.542530 -6.985550 0.000000
				CHANNELS 3 Zrotation Yrotation Xrotation
				JOINT RightFoot
				{
					OFFSET -2.568260 -7.056230 0.000000
					CHANNELS 3 Zrotation Yrotation Xrotation
					JOINT RightToeBase
					{
						OFFSET -0.164730 -0.452590 2.363150
						CHANNELS 3 Zrotation Yrotation Xrotation
						End Site
						{
							OFFSET 0.000000 0.000000 0.000000
						}
					}
				}
			}
		}
	}
	JOINT LowerBack
	{
		OFFSET 0.000000 0.000000 0.000000
		CHANNELS 3 Zrotation Yrotation Xrotation
		JOINT Spine
		{
			OFFSET 0.028270 2.035590 -0.193380
			CHANNELS 3 Zrotation Yrotation Xrotation
			JOINT Spine1
			{
				OFFSET 0.056720 2.048850 -0.042750
				CHANNELS 3 Zrotation Yrotation Xrotation
				JOINT Neck
				{
					OFFSET 0.000000 0.000000 0.000000
					CHANNELS 3 Zrotation Yrotation Xrotation
					JOINT Neck1
					{
						OFFSET -0.054170 1.746240 0.172020
						CHANNELS 3 Zrotation Yrotation Xrotation
						JOINT Head
						{
							OFFSET 0.104070 1.761360 -0.123970
							CHANNELS 3 Zrotation Yrotation Xrotation
							End Site
							{
								OFFSET 0.000000 0.000000 0.000000
							}
						}
					}
				}
				JOINT LeftShoulder
				{
					OFFSET 0.000000 0.000000 0.000000
					CHANNELS 3 Zrotation Yrotation Xrotation
					JOINT LeftArm
					{
						OFFSET 3.362410 1.200890 -0.311210
						CHANNELS 3 Zrotation Yrotation Xrotation
						JOINT LeftForeArm
						{
							OFFSET 4.983000 -0.000000 -0.000000
							CHANNELS 3 Zrotation Yrotation Xrotation
							JOINT LeftHand
							{
								OFFSET 3.483560 -0.000000 -0.000000
								CHANNELS 3 Zrotation Yrotation Xrotation
								JOINT LeftFingerBase
								{
									OFFSET 0.000000 0.000000 0.000000
									CHANNELS 3 Zrotation Yrotation Xrotation
									JOINT LeftHandIndex1
									{
										OFFSET 0.715260 -0.000000 -0.000000
										CHANNELS 3 Zrotation Yrotation Xrotation
										End Site
										{
											OFFSET 0.000000 0.000000 0.000000
										}
									}
								}
								JOINT LThumb
								{
									OFFSET 0.000000 0.000000 0.000000
									CHANNELS 3 Zrotation Yrotation Xrotation
									End Site
									{
										OFFSET 0.000000 0.000000 0.000000
									}
								}
							}
						}
					}
				}
				JOINT RightShoulder
				{
					OFFSET 0.000000 0.000000 0.000000
					CHANNELS 3 Zrotation Yrotation Xrotation
					JOINT RightArm
					{
						OFFSET -3.136600 1.374050 -0.404650
						CHANNELS 3 Zrotation Yrotation Xrotation
						JOINT RightForeArm
						{
							OFFSET -5.241900 -0.000000 -0.000000
							CHANNELS 3 Zrotation Yrotation Xrotation
							JOINT RightHand
							{
								OFFSET -3.444170 -0.000000 -0.000000
								CHANNELS 3 Zrotation Yrotation Xrotation
								JOINT RightFingerBase
								{
									OFFSET 0.000000 0.000000 0.000000
									CHANNELS 3 Zrotation Yrotation Xrotation
									JOINT RightHandIndex1
									{
										OFFSET -0.622530 -0.000000 -0.000000
										CHANNELS 3 Zrotation Yrotation Xrotation
										End Site
										{
											OFFSET 0.000000 0.000000 0.000000
										}
									}
								}
								JOINT RThumb
								{
									OFFSET 0.000000 0.000000 0.000000
									CHANNELS 3 Zrotation Yrotation Xrotation
									End Site
									{
										OFFSET 0.000000 0.000000 0.000000
									}
								}
							}
						}
					}
				}
			}
		}
	}
}
MOTION
Frames: 6
Frame Time: 0.008333
1.478166 17.307248 1.538454 -179.094797 -58.936734 -168.446803 -11.580764 2.734925 -1.815232 -7.755280 28.036655 -15.031571 -2.707822 -0.627095 5.106529 2.457019 17.119314 -3.526947 1.324300 -0.000001 -31.628500 9.458308 -1.073734 4.366244 0.425987 5.305596 -22.205737 2.648046 0.670403 4.191975 1.212554 6.384636 9.731677 1.221400 0.000001 -70.591900 0.550357 -4.183253 -4.072353 -0.458365 -4.282977 -3.973685 -6.457226 -4.097136 -3.178373 8.486333 -10.017654 1.658538 -3.113043 -0.355112 2.605552 0.000000 0.000000 0.000000 20.036895 -2.935234 -4.706100 -54.545456 -46.713975 -25.718455 176.986579 -52.803610 179.744452 13.748486 -8.520992 -1.191044 -0.173449 1.221690 -0.000000 0.000000 0.000000 0.000000 0.000000 0.000000 0.000000 1.946899 -11.230438 -4.694168 85.429229 40.889656 23.769728 -177.009260 62.515425 179.695027 -21.783848 13.188732 -2.789391 0.290064 -1.036410 -0.000000 0.000000 0.000000 0.000000 0.000000 0.000000 0.000000 
1.476365 17.306359 1.561960 -179.287057 -59.385540 -168.116406 -11.534115 2.710347 -1.769641 -8.014463 27.486057 -15.252149 -2.699955 -0.628815 5.259559 2.472561 17.103963 -3.706298 1.278901 -0.000000 -31.340400 9.498210 -1.028198 4.266369 0.266560 4.972239 -22.392849 2.611717 0.652031 4.368696 1.180388 6.186444 9.620392 1.159200 0.000000 -70.631300 0.487439 -4.194074 -3.960319 -0.488574 -4.287835 -3.938934 -6.545619 -4.099967 -3.140811 8.639756 -10.090333 1.521265 -3.101165 -0.352474 2.565345 0.000000 0.000000 0.000000 20.038554 -2.911344 -4.780073 -54.556795 -47.444074 -25.230083 176.964670 -53.137052 179.741487 13.878375 -8.562435 -1.207662 -0.173595 1.223607 -0.000000 0.000000 0.000000 0.000000 0.000000 0.000000 0.000000 2.034516 -11.284578 -4.503186 85.015736 39.779721 23.397605 -177.064105 62.540962 179.698522 -21.631305 13.196206 -2.770172 0.288377 -1.032738 -0.000000 0.000000 0.000000 0.000000 0.000000 0.000000 0.000000 
1.474256 17.305504 1.585462 -179.503534 -59.943177 -167.737363 -11.483933 2.681885 -1.710091 -8.283218 26.846610 -15.498430 -2.690239 -0.632076 5.408587 2.485900 17.065124 -3.880606 1.234500 -0.000000 -31.054501 9.538992 -0.979369 4.161829 0.094271 4.632019 -22.593488 2.566895 0.632442 4.581598 1.133585 5.878918 9.461548 1.061800 -0.000000 -70.572100 0.421164 -4.205848 -3.851933 -0.520081 -4.293605 -3.903321 -6.635365 -4.103698 -3.096690 8.819426 -10.191789 1.350666 -3.093716 -0.349642 2.515765 0.000000 0.000000 0.000000 20.073967 -2.881096 -4.864401 -54.627816 -48.241115 -24.657657 176.938788 -53.470166 179.738451 13.998853 -8.618231 -1.225483 -0.173009 1.226361 -0.000000 0.000000 0.000000 0.000000 0.000000 0.000000 0.000000 2.186287 -11.359901 -4.290300 84.518109 38.601160 22.970805 -177.138432 62.630376 179.702444 -21.469698 13.231804 -2.755242 0.286632 -1.028763 -0.000000 0.000000 0.000000 0.000000 0.000000 0.000000 0.000000 
1.471671 17.304719 1.608824 -179.751187 -60.620939 -167.299770 -11.430608 2.649959 -1.634664 -8.561173 26.113875 -15.779436 -2.679428 -0.636064 5.563163 2.495844 16.994953 -4.048317 1.191000 -0.000000 -30.777700 9.580150 -0.927438 4.053850 -0.094165 4.285909 -22.801804 2.513183 0.613024 4.820196 1.070372 5.451434 9.258164 0.927100 0.000000 -70.419900 0.354586 -4.220171 -3.750615 -0.551886 -4.302195 -3.866785 -6.725216 -4.110327 -3.042302 9.025998 -10.329327 1.141650 -3.090500 -0.346544 2.455457 0.000000 0.000000 0.000000 20.134723 -2.837604 -4.958124 -54.757528 -49.110917 -23.999735 176.912878 -53.810978 179.735757 14.084740 -8.685069 -1.241803 -0.170916 1.229835 -0.000000 0.000000 0.000000 0.000000 0.000000 0.000000 0.000000 2.406122 -11.464914 -4.057232 83.938491 37.350325 22.492103 -177.233594 62.796367 179.706789 -21.307587 13.295676 -2.745398 0.285080 -1.024254 -0.000000 0.000000 0.000000 0.000000 0.000000 0.000000 0.000000 
1.468450 17.304073 1.631872 179.956863 -61.430501 -166.791576 -11.374871 2.615418 -1.541799 -8.846593 25.285962 -16.099204 -2.668356 -0.640074 5.729617 2.500577 16.883448 -4.205364 1.149000 -0.000000 -30.519700 9.621485 -0.872503 3.942534 -0.301854 3.929312 -23.009391 2.450288 0.595009 5.073832 0.989289 4.899199 9.014319 0.755500 -0.000000 -70.188900 0.291518 -4.238434 -3.658506 -0.582906 -4.315341 -3.829241 -6.814405 -4.121702 -2.974907 9.257963 -10.507700 0.891040 -3.090968 -0.343104 2.383605 0.000000 0.000000 0.000000 20.205847 -2.773908 -5.059868 -54.941410 -50.063453 -23.257760 176.890904 -54.174874 179.733734 14.117175 -8.758927 -1.254120 -0.166721 1.233829 -0.000000 0.000000 0.000000 0.000000 0.000000 0.000000 0.000000 2.694104 -11.606272 -3.806996 83.286822 36.018667 21.968870 -177.348749 63.047308 179.711519 -21.156221 13.387494 -2.742238 0.283960 -1.018959 -0.000000 0.000000 0.000000 0.000000 0.000000 0.000000 0.000000 
1.464046 17.303517 1.654295 179.607671 -62.389055 -166.193322 -11.318192 2.579372 -1.424393 -9.139757 24.351304 -16.474853 -2.657658 -0.643806 5.919077 2.498866 16.721461 -4.351973 1.107900 0.000000 -30.291201 9.661522 -0.815939 3.830011 -0.527864 3.550783 -23.214889 2.379141 0.580701 5.329130 0.888973 4.217952 8.735413 0.547300 0.000000 -69.898700 0.242667 -4.261566 -3.586349 -0.610697 -4.335079 -3.793083 -6.903230 -4.140069 -2.894319 9.505642 -10.721656 0.599626 -3.092589 -0.339191 2.300626 0.000000 0.000000 0.000000 20.262546 -2.687327 -5.166084 -55.165268 -51.106063 -22.435915 176.877048 -54.579796 179.732563 14.090301 -8.830605 -1.260830 -0.160317 1.237933 -0.000000 0.000000 0.000000 0.000000 0.000000 0.000000 0.000000 3.028444 -11.779891 -3.543883 82.589208 34.571859 21.403491 -177.477307 63.381377 179.716609 -21.021604 13.490562 -2.742765 0.283123 -1.012246 -0.000000 0.000000 0.000000 0.000000 0.000000 0.000000 0.000000 
